<svg xmlns="http://www.w3.org/2000/svg" viewBox="0 0 32 32">
  <path id="youtube"
        d="M28.24034,9.81073A3.21021,3.21021,0,0,0,25.9816,7.53732C23.9892,7,16,7,16,7s-7.98921,0-9.9816.53732A3.21021,3.21021,0,0,0,3.75967,9.81073,33.67486,33.67486,0,0,0,3.2258,16a33.6751,33.6751,0,0,0,.53387,6.18928,3.21018,3.21018,0,0,0,2.25874,2.27339C8.0108,25,16,25,16,25s7.98919,0,9.98159-.53734a3.21018,3.21018,0,0,0,2.25874-2.27339A33.67633,33.67633,0,0,0,28.77419,16,33.6761,33.6761,0,0,0,28.24034,9.81073ZM13.3871,19.7987V12.2013l6.67742,3.79882Z"
        fill="#ffffff"/>
</svg>
