<?xml version="1.0" encoding="utf-8"?>
<svg xmlns="http://www.w3.org/2000/svg" x="0px" y="0px" viewBox="0 0 16 16" style="enable-background:new 0 0 16 16;">
<polygon points="3,7.83 4.41,6.41 7.24,9.24 11.49,5 12.9,6.41 7.24,12.07 "/>
  <g>
	<path d="M2.29,7.12L3,6.41V4c0-0.55,0.45-1,1-1h8c0.55,0,1,0.45,1,1v1.1l0.61,0.61L14,6.1V4c0-1.1-0.9-2-2-2H4C2.9,2,2,2.9,2,4v3.41L2.29,7.12z"/>
    <path d="M13.61,7.12L13,7.73V12c0,0.55-0.45,1-1,1H7.73l-0.49,0.49L6.76,13H4c-0.55,0-1-0.45-1-1V9.24L2.29,8.54L2,8.24V12c0,1.1,0.9,2,2,2h8c1.1,0,2-0.9,2-2V6.73L13.61,7.12z"/>
</g>
</svg>
