<svg xmlns="http://www.w3.org/2000/svg" viewBox="0 0 268.68 64.64">
  <path
    d="M42 13.6c-3.15-2.56-5.39-3.84-6.72-3.84H17.12c-1.65 0-2.96.07-3.92.2s-1.69.45-2.2.96c-.51.51-.83 1.24-.96 2.2-.13.96-.2 2.27-.2 3.92 0 1.44.12 2.57.36 3.4.24.83.64 1.44 1.2 1.84.56.4 1.31.65 2.24.76.93.11 2.09.16 3.48.16h15.92c3.36 0 5.92.91 7.68 2.72 1.76 1.81 2.64 4.27 2.64 7.36v8.56c0 2.08-.15 3.77-.44 5.08-.29 1.31-.88 2.33-1.76 3.08s-2.16 1.25-3.84 1.52c-1.68.27-3.88.4-6.6.4H0V40.48c3.09 2.56 5.23 3.84 6.4 3.84h20c1.6 0 2.87-.07 3.8-.2.93-.13 1.65-.44 2.16-.92.51-.48.84-1.21 1-2.2.16-.99.24-2.33.24-4.04 0-2.35-.33-3.96-1-4.84-.67-.88-1.96-1.32-3.88-1.32H12c-1.49 0-2.96-.17-4.4-.52-1.44-.35-2.72-.85-3.84-1.52-1.12-.67-2.03-1.53-2.72-2.6C.35 25.09 0 23.84 0 22.4V12.24c0-1.97.12-3.61.36-4.92s.8-2.35 1.68-3.12c.88-.77 2.16-1.31 3.84-1.6 1.68-.29 3.93-.44 6.76-.44H42V13.6zM91.2 41.76c0 4.53-.99 7.44-2.96 8.72v-.08c-1.44.96-4.64 1.44-9.6 1.44H59.28v5.28c0 2.08.83 4.59 2.48 7.52H47.2c1.49-3.47 2.24-5.97 2.24-7.52V23.6c0-1.28-.69-4.13-2.08-8.56h31.28c5.07 0 8.27.51 9.6 1.52l-.08-.08c2.03 1.23 3.04 4.11 3.04 8.64v16.64zm-9.76-12.88c0-1.39-.11-2.49-.32-3.32-.21-.83-.6-1.45-1.16-1.88-.56-.43-1.31-.69-2.24-.8-.93-.11-2.12-.16-3.56-.16H59.28v21.52h14.88c1.44 0 2.63-.05 3.56-.16.93-.11 1.68-.37 2.24-.8.56-.43.95-1.05 1.16-1.88.21-.83.32-1.93.32-3.32v-9.2zm51.28 23.04c-1.44 0-2.64-.54-3.6-1.6-1.39 1.07-2.61 1.6-3.68 1.6h-16.72c-4.11 0-6.85-.27-8.24-.8h.08c-2.13-.53-3.44-1.84-3.92-3.92l.08.08c-.27-.59-.44-1.52-.52-2.8-.08-1.28-.12-2.85-.12-4.72 0-1.97.12-3.61.36-4.92s.8-2.35 1.68-3.12c.88-.77 2.16-1.31 3.84-1.6 1.68-.29 3.93-.44 6.76-.44h19.44v-.8c0-2.67-.43-4.35-1.28-5.04l.08.08c-.96-.8-2.96-1.2-6-1.2h-15.52c-1.65 0-3.95 1.23-6.88 3.68V15.12h26.88c4.91 0 8.08.48 9.52 1.44v-.08c2.03 1.23 3.04 4.13 3.04 8.72v18.96c0 2.29.88 4.88 2.64 7.76h-7.92zm-4.56-14.64H109.6c-1.23 0-2.23.33-3 1-.77.67-1.16 1.53-1.16 2.6s.39 1.91 1.16 2.52c.77.61 1.77.92 3 .92h15.84c1.81 0 2.72-1.15 2.72-3.44v-3.6zm48.32-9.92c-2.45-3.09-4.32-4.64-5.6-4.64h-7.12c-1.49 0-2.71.08-3.64.24-.93.16-1.68.45-2.24.88-.56.43-.95 1.04-1.16 1.84-.21.8-.32 1.87-.32 3.2V44.4c0 1.97.8 4.48 2.4 7.52h-14.48c1.55-2.99 2.32-5.49 2.32-7.52V22.32c0-1.81-.77-4.21-2.32-7.2h12.08v2.64c1.97-1.76 4.75-2.64 8.32-2.64h11.76v12.24zm35.6 24.56c1.49-3.63 2.24-6.43 2.24-8.4 0-1.44-.15-2.57-.44-3.4-.29-.83-.75-1.44-1.36-1.84-.61-.4-1.37-.64-2.28-.72-.91-.08-1.97-.12-3.2-.12h-15.68v5.12c0 2.56.75 5.68 2.24 9.36h-14.24c1.44-4.05 2.16-7.17 2.16-9.36V7.44c0-2.08-.88-4.56-2.64-7.44H194c-1.76 2.88-2.64 5.36-2.64 7.44V31.6l12.8-11.12c2.03-1.71 3.33-3.52 3.92-5.44h16.8c-.43.27-1.09.68-2 1.24-.91.56-1.89 1.17-2.96 1.84-1.07.67-2.15 1.36-3.24 2.08-1.09.72-2.04 1.37-2.84 1.96l.08-.08-9.12 7.68h8.32c7.25 0 10.88 3.36 10.88 10.08v3.68c0 2.51.8 5.31 2.4 8.4h-14.32zM264.1 6.4v3.59h-.94V6.63l-.38-.37h-1.31v3.73h-.97V6.27h-1.75V10h-.92V5.3h5.23c-7.37-7.19-19.17-7.05-26.36.31s-7.05 19.17.31 26.36 19.17 7.05 26.36-.31c6.79-6.94 7.1-17.93.73-25.26zm-6.27 7.62h-11.06l-1.27 1.27v6.7l1.27 1.27h11.06v3.11h-12.2l-3.33-3.32v-8.82l3.33-3.32h12.2v3.11z"
    fill="#fff"/>
</svg>
