<?xml version="1.0" encoding="UTF-8" standalone="no"?>
<!DOCTYPE svg PUBLIC "-//W3C//DTD SVG 1.1//EN" "http://www.w3.org/Graphics/SVG/1.1/DTD/svg11.dtd">
<svg width="100%" height="100%" viewBox="0 0 120 40" version="1.1" xmlns="http://www.w3.org/2000/svg" xmlns:xlink="http://www.w3.org/1999/xlink" xml:space="preserve" xmlns:serif="http://www.serif.com/" style="fill-rule:evenodd;clip-rule:evenodd;stroke-linejoin:round;stroke-miterlimit:2;">
    <g id="Logo">
        <g transform="matrix(1.52086,0,0,1.52086,-40.5803,64.0358)">
            <path d="M53.58,-26.757L58.686,-26.757L59.287,-27.359L59.287,-28.235L53.58,-28.235L53.58,-31.048L55.16,-32.628L60.816,-32.628L60.816,-31.15L55.71,-31.15L55.109,-30.549L55.109,-29.672L60.816,-29.672L60.816,-26.859L59.236,-25.28L53.58,-25.28L53.58,-26.757Z" style="fill:rgb(54,57,54);fill-rule:nonzero;"/>
            <path d="M63.568,-32.628L69.295,-32.628L70.875,-31.048L70.875,-27.98L65.066,-27.98L65.066,-25.28L63.568,-25.28L63.568,-32.628ZM69.346,-29.458L69.346,-30.549L68.745,-31.15L65.066,-31.15L65.066,-29.458L69.346,-29.458Z" style="fill:rgb(54,57,54);fill-rule:nonzero;"/>
            <path d="M73.362,-32.628L79.324,-32.628L80.904,-31.048L80.904,-25.28L79.426,-25.28L79.426,-28.103L74.84,-28.103L74.84,-25.28L73.362,-25.28L73.362,-32.628ZM79.426,-29.57L79.426,-30.549L78.824,-31.15L74.84,-31.15L74.84,-29.57L79.426,-29.57Z" style="fill:rgb(54,57,54);fill-rule:nonzero;"/>
            <path d="M83.655,-32.628L89.607,-32.628L91.105,-31.068L91.105,-27.991L89.077,-27.991L91.809,-25.28L89.872,-25.28L87.182,-27.96L85.164,-27.96L85.164,-25.28L83.655,-25.28L83.655,-32.628ZM89.638,-29.499L89.638,-30.661L89.22,-31.099L85.164,-31.099L85.164,-29.499L89.638,-29.499Z" style="fill:rgb(54,57,54);fill-rule:nonzero;"/>
            <path d="M100.196,-31.812L100.196,-32.628L101.725,-32.628L101.725,-31.313L99.361,-28.959L101.725,-26.594L101.725,-25.28L100.196,-25.28L100.196,-26.095L98.056,-28.235L95.447,-28.235L95.447,-25.28L93.918,-25.28L93.918,-32.628L95.447,-32.628L95.447,-29.672L98.056,-29.672L100.196,-31.812Z" style="fill:rgb(54,57,54);fill-rule:nonzero;"/>
        </g>
        <g transform="matrix(1,0,0,1,0,-0.001)">
            <path d="M24.1,29.8C26.478,28.77 29.257,29.292 31.1,31.114L34.043,34.057C30.302,37.798 25.222,39.903 19.931,39.903C8.984,39.903 -0.025,30.894 -0.025,19.947C-0.025,8.999 8.984,-0.009 19.931,-0.009C25.222,-0.01 30.302,2.095 34.043,5.836L31.1,8.779C29.257,10.6 26.477,11.121 24.1,10.091C22.781,9.533 21.364,9.246 19.932,9.246C14.063,9.246 9.232,14.076 9.232,19.946C9.232,25.816 14.063,30.646 19.932,30.646C21.364,30.646 22.781,30.359 24.1,29.801M23.231,19.906C23.231,18.092 21.739,16.6 19.925,16.6C18.111,16.6 16.619,18.092 16.619,19.906C16.619,21.72 18.111,23.212 19.925,23.212C21.738,23.21 23.229,21.719 23.231,19.906" style="fill:url(#_Linear1);fill-rule:nonzero;"/>
        </g>
    </g>
    <defs>
        <linearGradient id="_Linear1" x1="0" y1="0" x2="1" y2="0" gradientUnits="userSpaceOnUse" gradientTransform="matrix(34.043,39.9025,-39.9025,34.043,0,0)"><stop offset="0" style="stop-color:rgb(103,39,121);stop-opacity:1"/><stop offset="1" style="stop-color:rgb(0,108,174);stop-opacity:1"/></linearGradient>
    </defs>
</svg>
