<?xml version="1.0" encoding="utf-8"?>
<!-- Generator: Adobe Illustrator 22.0.1, SVG Export Plug-In . SVG Version: 6.00 Build 0)  -->
<svg version="1.1" xmlns="http://www.w3.org/2000/svg" xmlns:xlink="http://www.w3.org/1999/xlink" x="0px" y="0px"
	 viewBox="0 0 226.77 226.77" style="enable-background:new 0 0 226.77 226.77;" xml:space="preserve">
<style type="text/css">
	.st0{fill:none;stroke:#000000;stroke-width:2;stroke-linecap:round;stroke-linejoin:round;stroke-miterlimit:10;}
	
		.st1{fill-rule:evenodd;clip-rule:evenodd;fill:none;stroke:#000000;stroke-width:2;stroke-linecap:round;stroke-linejoin:round;stroke-miterlimit:3.8637;}
	.st2{fill:none;stroke:#000000;stroke-width:2;stroke-linecap:round;stroke-linejoin:round;stroke-miterlimit:3.8637;}
	.st3{display:none;}
	.st4{display:inline;}
	.st5{font-family:'MyriadPro-Regular';}
	.st6{font-size:12px;}
</style>
<g id="Ebene_1">
	<g>
		<g>
			<polyline class="st0" points="107.33,146.73 119.53,146.73 119.53,151.14 99.13,151.14 			"/>
			<line class="st1" x1="12.15" y1="164.87" x2="184.03" y2="164.87"/>
			<g>
				<circle class="st2" cx="159.48" cy="152.39" r="11.24"/>
				<path class="st2" d="M159.48,152.39"/>
			</g>
			<g>
				<path class="st2" d="M154.27,152.39c0-2.88,2.33-5.21,5.21-5.21c2.88,0,5.21,2.33,5.21,5.21s-2.33,5.21-5.21,5.21
					C156.6,157.6,154.27,155.27,154.27,152.39z"/>
				<path class="st2" d="M159.48,152.39"/>
			</g>
			<line class="st1" x1="186.83" y1="122.95" x2="223.72" y2="122.95"/>
			<line class="st1" x1="186.83" y1="111" x2="214.95" y2="111"/>
			<line class="st1" x1="186.83" y1="146.86" x2="214.95" y2="146.86"/>
		</g>
		<polyline class="st0" points="7.05,134.86 20.54,108.62 41.54,108.62 41.54,134.85 		"/>
		<polyline class="st0" points="78.17,146.73 47.89,146.73 47.89,99.18 107.33,99.18 107.33,146.73 97.59,146.73 		"/>
		<polyline class="st0" points="13.49,155.57 7.05,155.57 7.05,134.86 41.54,134.86 41.54,155.57 35.05,155.57 		"/>
		<g>
			<path class="st2" d="M13.04,152.39c0-6.21,5.03-11.24,11.24-11.24s11.24,5.03,11.24,11.24s-5.03,11.24-11.24,11.24
				S13.04,158.6,13.04,152.39z"/>
			<path class="st2" d="M24.27,152.39"/>
		</g>
		<polyline class="st0" points="56.26,146.75 56.26,155.57 48.9,155.57 41.54,155.57 		"/>
		<line class="st0" x1="41.54" y1="146.73" x2="47.89" y2="146.73"/>
		<line class="st0" x1="76.68" y1="151.15" x2="56.26" y2="151.15"/>
		<g>
			<path class="st2" d="M19.07,152.39c0-2.88,2.33-5.21,5.21-5.21c2.88,0,5.21,2.33,5.21,5.21c0,2.88-2.33,5.21-5.21,5.21
				C21.4,157.6,19.07,155.27,19.07,152.39z"/>
			<path class="st2" d="M24.27,152.39"/>
		</g>
		<g>
			<circle class="st2" cx="87.88" cy="152.39" r="11.24"/>
			<path class="st2" d="M87.88,152.39"/>
		</g>
		<g>
			<path class="st2" d="M82.67,152.39c0-2.88,2.33-5.21,5.21-5.21c2.88,0,5.21,2.33,5.21,5.21c0,2.88-2.33,5.21-5.21,5.21
				C85,157.6,82.67,155.27,82.67,152.39z"/>
			<path class="st2" d="M87.88,152.39"/>
		</g>
		<line class="st0" x1="38.59" y1="99.65" x2="20.38" y2="104.53"/>
		<line class="st0" x1="20.54" y1="108.62" x2="20.54" y2="134.85"/>
		<polyline class="st0" points="149.77,146.73 119.49,146.73 119.49,99.18 178.93,99.18 178.93,146.73 169.19,146.73 		"/>
	</g>
</g>
<g id="Ebene_3">
</g>
<g id="typo" class="st3">
	<text transform="matrix(1 0 0 1 10.0057 18.8741)" class="st4 st5 st6">Beau Thai</text>
</g>
</svg>
