<svg xmlns="http://www.w3.org/2000/svg" xmlns:xlink="http://www.w3.org/1999/xlink">
  <symbol id="logo" viewBox="0 0 40 40">
    <path id="Fill-10" fill="#FFFFFF" d="M28.3,15H16.5l-1.4,1.4v7.2l1.4,1.4h11.9v3.3H15.2l-3.6-3.6v-9.5l3.6-3.6h13.1V15z M35.1,6.9v3.9h-1V7.1l-0.4-0.4h-1.4v4h-1v-4h-1.9v4h-1v-5H34C30.4,2.2,25.4,0,20,0C9,0,0,9,0,20c0,11,9,20,20,20c11,0,20-9,20-20C40,15,38.1,10.4,35.1,6.9L35.1,6.9z"/>
  </symbol>
  <symbol id="wordlogo" viewBox="0 0 250 40">
    <polyline id="Fill-1" fill="#FFFFFF" points="0.6,25.8 0.6,16.3 4.2,12.8 17.3,12.8 17.3,16.1 5.4,16.1 4.1,17.5 4.1,24.7 5.4,26 17.3,26 17.3,29.4 4.2,29.4 0.6,25.8"/>
    <path id="Fill-2" fill="#FFFFFF" fill-rule="evenodd" d="M25.8,26H36v-9.9H25.8V26z M22.3,29.4h17.1V12.8H22.3V29.4z"/>
    <path id="Fill-3" fill="#FFFFFF" d="M59.3,19.8v-2.6l-0.9-1h-9.2v3.6H59.3z M45.8,12.8h13.5l3.4,3.5v7h-4.6l6.2,6.1h-4.4l-6.1-6.1 h-4.6v6.1h-3.4V12.8L45.8,12.8z"/>
    <polyline id="Fill-4" fill="#FFFFFF" points="69,12.8 85.5,12.8 85.5,16.2 72.6,16.2 72.6,19.5 82.5,19.5 82.5,22.7 72.6,22.7 72.6,25.9 85.5,25.9 85.5,29.4 69,29.4 69,12.8"/>
    <polyline id="Fill-5" fill="#FFFFFF" points="91.5,12.8 110.3,12.8 113.7,16.3 113.7,29.4 110.4,29.4 110.4,17.5 109,16.2 104.3,16.2 104.3,29.4 101,29.4 101,16.2 94.8,16.2 94.8,29.4 91.5,29.4 91.5,12.8"/>
    <polyline id="Fill-6" fill="#FFFFFF" points="120,12.8 136.4,12.8 136.4,16.2 123.5,16.2 123.5,19.5 133.4,19.5 133.4,22.7 123.5,22.7 123.5,25.9 136.4,25.9 136.4,29.4 120,29.4 120,12.8"/>
    <path id="Fill-7" fill="#FFFFFF" d="M155,26l1.4-1.4v-7.2l-1.4-1.4h-9.5V26H155z M142.1,12.8h14.2l3.6,3.6v9.5l-3.6,3.6h-14.2V12.8 L142.1,12.8z"/>
    <polygon id="Fill-8" fill="#FFFFFF" points="165.5,29.4 169,29.4 169,12.8 165.5,12.8"/>
    <path id="Fill-9" fill="#FFFFFF" d="M189,19.7v-2.5l-1.1-1.1h-9.3v3.6H189z M175.3,12.8h13.5l3.6,3.6v13H189V23h-10.4v6.4h-3.3 V12.8L175.3,12.8z"/>
    <path id="Fill-10" fill="#FFFFFF" d="M237.5,15.2h-11.9l-1.4,1.4v7.2l1.4,1.4h11.9v3.3h-13.1l-3.6-3.6v-9.5l3.6-3.6h13.1V15.2z M244.3,7.1v3.9h-1V7.3l-0.4-0.4h-1.4v4h-1v-4h-1.9v4h-1v-5h5.6c-3.6-3.5-8.5-5.7-14-5.7c-11,0-20,9-20,20s9,20,20,20 c11,0,20-9,20-20C249.2,15.2,247.3,10.6,244.3,7.1L244.3,7.1z"/>
  </symbol>
  <svg id="wide" viewBox="0 0 250 40">
    <use xmlns:xlink="http://www.w3.org/1999/xlink" xlink:href="#wordlogo"/>
  </svg>
</svg>
