<?xml version="1.0" encoding="UTF-8"?>
<svg enable-background="new 0 0 48 48" version="1.1" viewBox="0 0 48 48" xml:space="preserve" xmlns="http://www.w3.org/2000/svg">
<style type="text/css">
	.st0{fill-rule:evenodd;clip-rule:evenodd;fill:#FFFFFF;opacity:0;}
	.st1{fill-rule:evenodd;clip-rule:evenodd;}
</style>
  <path class="st0" d="M2,0h44c1.1,0,2,0.9,2,2v44c0,1.1-0.9,2-2,2H2c-1.1,0-2-0.9-2-2V2C0,0.9,0.9,0,2,0z"/>
  <path class="st1" d="m34.99 33.59l-7.33-7.33c1.15-1.45 1.84-3.27 1.84-5.26 0-4.69-3.81-8.5-8.5-8.5s-8.5 3.81-8.5 8.5 3.81 8.5 8.5 8.5c1.98 0 3.8-0.69 5.25-1.83l7.33 7.33 1.41-1.41zm-20.49-12.59c0-3.58 2.92-6.5 6.5-6.5s6.5 2.92 6.5 6.5-2.92 6.5-6.5 6.5-6.5-2.92-6.5-6.5z"/>
</svg>
